<svg width="600" height="200" viewBox="0 0 600 200" fill="none" xmlns="http://www.w3.org/2000/svg">
<g clip-path="url(#clip0_87_204)">
<rect width="600" height="200" rx="100" fill="black"/>
<mask id="path-2-inside-1_87_204" fill="white">
<path d="M160.735 100C160.735 88.1334 157.217 76.533 150.624 66.666C144.031 56.7991 134.66 49.1087 123.696 44.5675C112.733 40.0262 100.669 38.838 89.0301 41.1531C77.3912 43.4682 66.7002 49.1827 58.3091 57.5738C49.9179 65.965 44.2035 76.656 41.8884 88.2948C39.5732 99.9337 40.7614 111.998 45.3027 122.961C49.844 133.925 57.5343 143.296 67.4013 149.888C77.2682 156.481 88.8686 160 100.735 160V100H160.735Z"/>
</mask>
<path d="M160.735 100C160.735 88.1334 157.217 76.533 150.624 66.666C144.031 56.7991 134.66 49.1087 123.696 44.5675C112.733 40.0262 100.669 38.838 89.0301 41.1531C77.3912 43.4682 66.7002 49.1827 58.3091 57.5738C49.9179 65.965 44.2035 76.656 41.8884 88.2948C39.5732 99.9337 40.7614 111.998 45.3027 122.961C49.844 133.925 57.5343 143.296 67.4013 149.888C77.2682 156.481 88.8686 160 100.735 160V100H160.735Z" stroke="white" stroke-width="10" mask="url(#path-2-inside-1_87_204)"/>
<mask id="path-3-inside-2_87_204" fill="white">
<path d="M145.197 100C145.197 91.2065 142.589 82.6103 137.704 75.2987C132.818 67.987 125.874 62.2883 117.75 58.9231C109.626 55.5579 100.686 54.6774 92.0614 56.393C83.4368 58.1085 75.5145 62.3431 69.2965 68.5611C63.0784 74.7792 58.8439 82.7014 57.1283 91.3261C55.4128 99.9508 56.2933 108.89 59.6584 117.015C63.0236 125.139 68.7224 132.083 76.034 136.968C83.3456 141.854 91.9418 144.462 100.735 144.462L100.735 100L145.197 100Z"/>
</mask>
<path d="M145.197 100C145.197 91.2065 142.589 82.6103 137.704 75.2987C132.818 67.987 125.874 62.2883 117.75 58.9231C109.626 55.5579 100.686 54.6774 92.0614 56.393C83.4368 58.1085 75.5145 62.3431 69.2965 68.5611C63.0784 74.7792 58.8439 82.7014 57.1283 91.3261C55.4128 99.9508 56.2933 108.89 59.6584 117.015C63.0236 125.139 68.7224 132.083 76.034 136.968C83.3456 141.854 91.9418 144.462 100.735 144.462L100.735 100L145.197 100Z" stroke="white" stroke-width="10" mask="url(#path-3-inside-2_87_204)"/>
<mask id="path-4-inside-3_87_204" fill="white">
<path d="M130.369 100.001C130.369 94.1395 128.631 88.4102 125.375 83.537C122.119 78.6637 117.491 74.8655 112.076 72.6226C106.661 70.3797 100.703 69.7928 94.9543 70.9363C89.2059 72.0797 83.9257 74.902 79.7814 79.0464C75.637 83.1907 72.8147 88.4709 71.6713 94.2193C70.5279 99.9677 71.1147 105.926 73.3576 111.341C75.6005 116.756 79.3987 121.384 84.272 124.64C89.1452 127.896 94.8746 129.634 100.736 129.634L100.736 100.001L130.369 100.001Z"/>
</mask>
<path d="M130.369 100.001C130.369 94.1395 128.631 88.4102 125.375 83.537C122.119 78.6637 117.491 74.8655 112.076 72.6226C106.661 70.3797 100.703 69.7928 94.9543 70.9363C89.2059 72.0797 83.9257 74.902 79.7814 79.0464C75.637 83.1907 72.8147 88.4709 71.6713 94.2193C70.5279 99.9677 71.1147 105.926 73.3576 111.341C75.6005 116.756 79.3987 121.384 84.272 124.64C89.1452 127.896 94.8746 129.634 100.736 129.634L100.736 100.001L130.369 100.001Z" stroke="white" stroke-width="10" mask="url(#path-4-inside-3_87_204)"/>
<circle cx="100.735" cy="100" r="7" fill="white"/>
<path d="M232.833 44.842C232.833 48.11 230.253 50.604 226.555 50.604C222.857 50.604 220.191 48.11 220.191 44.842C220.191 41.488 222.857 39.08 226.555 39.08C230.253 39.08 232.833 41.488 232.833 44.842ZM230.941 101H222.255V55.42H230.941V101ZM251.686 101H243V55.42H251.084V62.988C254.18 57.742 259.082 54.56 265.36 54.56C272.068 54.56 277.142 58 279.206 64.02C282.388 58.172 287.634 54.56 294.6 54.56C303.974 54.56 309.994 60.666 309.994 71.502V101H301.308V74.254C301.308 66.686 297.954 62.214 291.59 62.214C285.656 62.214 280.84 67.202 280.84 74.856V101H272.154V74.254C272.154 66.686 268.8 62.214 262.436 62.214C256.416 62.214 251.686 67.202 251.686 74.856V101ZM365.125 78.21C365.125 91.97 357.213 101.86 345.001 101.86C338.809 101.86 333.563 98.764 330.295 93.26V117.598H321.609V55.42H329.693V63.762C332.961 57.914 338.551 54.56 345.001 54.56C357.127 54.56 365.125 64.45 365.125 78.21ZM356.095 78.21C356.095 67.976 350.677 62.214 343.195 62.214C335.971 62.214 330.295 67.976 330.295 78.21C330.295 88.272 335.885 94.12 343.195 94.12C350.677 94.12 356.095 88.444 356.095 78.21ZM382.617 77.694V101H373.931V55.42H382.015V65.052C385.197 58.774 392.077 54.818 399.559 54.818V63.848C389.755 63.332 382.617 67.632 382.617 77.694ZM417.011 44.842C417.011 48.11 414.431 50.604 410.733 50.604C407.035 50.604 404.369 48.11 404.369 44.842C404.369 41.488 407.035 39.08 410.733 39.08C414.431 39.08 417.011 41.488 417.011 44.842ZM415.119 101H406.433V55.42H415.119V101ZM435.863 75.286V101H427.177V55.42H435.261V62.988C438.357 57.914 443.517 54.56 449.795 54.56C459.169 54.56 465.361 60.58 465.361 71.502V101H456.675V74.426C456.675 66.6 453.235 62.214 446.785 62.214C440.851 62.214 435.863 67.202 435.863 75.286ZM502.442 92.572V100.226C499.776 101.43 497.454 101.86 494.702 101.86C486.274 101.86 480.426 97.302 480.426 87.24V62.816H470.364V55.42H480.426V41.918H489.112V55.42H502.872V62.816H489.112V85.262C489.112 91.54 492.122 93.776 496.766 93.776C498.83 93.776 500.636 93.432 502.442 92.572ZM254.763 153.476C254.763 161.13 248.399 165.86 238.079 165.86C227.845 165.86 221.137 160.442 220.363 151.584H223.115C223.717 158.98 229.393 163.452 238.079 163.452C246.851 163.452 251.839 159.926 251.839 153.82C251.839 148.488 248.915 145.994 240.745 144.36L235.069 143.242C226.297 141.522 221.997 137.48 221.997 131.202C221.997 124.15 228.361 119.162 237.477 119.162C247.281 119.162 253.645 124.408 254.247 133.008H251.495C250.807 125.784 245.647 121.57 237.477 121.57C229.995 121.57 224.921 125.354 224.921 131.03C224.921 136.362 228.103 139.114 236.101 140.662L241.863 141.78C250.893 143.5 254.763 147.026 254.763 153.476ZM283.141 165.946C271.015 165.946 262.931 156.4 262.931 142.038C262.931 128.966 271.359 119.162 282.711 119.162C294.751 119.162 302.577 128.794 302.147 143.156H265.769C266.199 155.54 272.821 163.538 283.141 163.538C291.913 163.538 298.019 158.378 299.567 149.864H302.405C300.685 159.668 293.203 165.946 283.141 165.946ZM282.711 121.57C273.251 121.57 266.285 129.396 265.769 140.748H299.137C298.535 128.708 292.429 121.57 282.711 121.57ZM316.077 139.716V165H313.153V120.022H315.991V131.116C318.915 123.978 325.451 119.162 332.933 119.162V122.258C323.645 122.258 316.077 129.912 316.077 139.716ZM337.426 142.468C337.426 128.364 345.08 119.162 357.12 119.162C364.602 119.162 370.966 123.72 373.804 131.288V103.252H376.728V165H373.89V153.992C370.966 161.474 364.688 165.86 357.12 165.86C344.994 165.86 337.426 156.658 337.426 142.468ZM340.35 142.468C340.35 155.54 346.714 163.452 357.12 163.452C367.354 163.452 373.976 155.024 373.976 142.296C373.976 129.396 367.096 121.57 357.12 121.57C346.714 121.57 340.35 129.482 340.35 142.468ZM407.69 165.946C395.564 165.946 387.48 156.4 387.48 142.038C387.48 128.966 395.908 119.162 407.26 119.162C419.3 119.162 427.126 128.794 426.696 143.156H390.318C390.748 155.54 397.37 163.538 407.69 163.538C416.462 163.538 422.568 158.378 424.116 149.864H426.954C425.234 159.668 417.752 165.946 407.69 165.946ZM407.26 121.57C397.8 121.57 390.834 129.396 390.318 140.748H423.686C423.084 128.708 416.978 121.57 407.26 121.57Z" fill="white"/>
</g>
<defs>
<clipPath id="clip0_87_204">
<rect width="600" height="200" fill="white"/>
</clipPath>
</defs>
</svg>
