<svg width="200" height="200" viewBox="0 0 200 200" fill="none" xmlns="http://www.w3.org/2000/svg">
<g clip-path="url(#clip0_87_211)">
<path d="M0 28C0 12.536 12.536 0 28 0H172C187.464 0 200 12.536 200 28V172C200 187.464 187.464 200 172 200H28C12.536 200 0 187.464 0 172V28Z" fill="black"/>
<mask id="path-2-inside-1_87_211" fill="white">
<path d="M160 100C160 88.1331 156.481 76.5327 149.888 66.6658C143.295 56.7988 133.925 49.1085 122.961 44.5672C111.997 40.026 99.9334 38.8378 88.2946 41.1529C76.6557 43.468 65.9647 49.1824 57.5736 57.5736C49.1824 65.9647 43.468 76.6557 41.1529 88.2946C38.8378 99.9334 40.026 111.997 44.5672 122.961C49.1085 133.925 56.7988 143.295 66.6658 149.888C76.5327 156.481 88.1331 160 100 160V100H160Z"/>
</mask>
<path d="M160 100C160 88.1331 156.481 76.5327 149.888 66.6658C143.295 56.7988 133.925 49.1085 122.961 44.5672C111.997 40.026 99.9334 38.8378 88.2946 41.1529C76.6557 43.468 65.9647 49.1824 57.5736 57.5736C49.1824 65.9647 43.468 76.6557 41.1529 88.2946C38.8378 99.9334 40.026 111.997 44.5672 122.961C49.1085 133.925 56.7988 143.295 66.6658 149.888C76.5327 156.481 88.1331 160 100 160V100H160Z" stroke="white" stroke-width="10" mask="url(#path-2-inside-1_87_211)"/>
<mask id="path-3-inside-2_87_211" fill="white">
<path d="M144.461 99.9999C144.461 91.2062 141.854 82.6101 136.968 75.2984C132.083 67.9868 125.139 62.288 117.015 58.9228C108.89 55.5577 99.9506 54.6772 91.326 56.3927C82.7013 58.1083 74.779 62.3428 68.561 68.5609C62.3429 74.7789 58.1084 82.7012 56.3928 91.3259C54.6773 99.9505 55.5578 108.89 58.923 117.014C62.2881 125.139 67.9869 132.083 75.2985 136.968C82.6102 141.854 91.2063 144.461 100 144.461L100 99.9998L144.461 99.9999Z"/>
</mask>
<path d="M144.461 99.9999C144.461 91.2062 141.854 82.6101 136.968 75.2984C132.083 67.9868 125.139 62.288 117.015 58.9228C108.89 55.5577 99.9506 54.6772 91.326 56.3927C82.7013 58.1083 74.779 62.3428 68.561 68.5609C62.3429 74.7789 58.1084 82.7012 56.3928 91.3259C54.6773 99.9505 55.5578 108.89 58.923 117.014C62.2881 125.139 67.9869 132.083 75.2985 136.968C82.6102 141.854 91.2063 144.461 100 144.461L100 99.9998L144.461 99.9999Z" stroke="white" stroke-width="10" mask="url(#path-3-inside-2_87_211)"/>
<mask id="path-4-inside-3_87_211" fill="white">
<path d="M129.634 100C129.634 94.1393 127.896 88.4099 124.64 83.5367C121.383 78.6635 116.755 74.8653 111.34 72.6224C105.926 70.3794 99.9672 69.7926 94.2188 70.936C88.4705 72.0794 83.1902 74.9018 79.0459 79.0461C74.9016 83.1905 72.0792 88.4707 70.9358 94.2191C69.7924 99.9674 70.3792 105.926 72.6221 111.341C74.865 116.755 78.6633 121.384 83.5365 124.64C88.4097 127.896 94.1391 129.634 100 129.634L100 100L129.634 100Z"/>
</mask>
<path d="M129.634 100C129.634 94.1393 127.896 88.4099 124.64 83.5367C121.383 78.6635 116.755 74.8653 111.34 72.6224C105.926 70.3794 99.9672 69.7926 94.2188 70.936C88.4705 72.0794 83.1902 74.9018 79.0459 79.0461C74.9016 83.1905 72.0792 88.4707 70.9358 94.2191C69.7924 99.9674 70.3792 105.926 72.6221 111.341C74.865 116.755 78.6633 121.384 83.5365 124.64C88.4097 127.896 94.1391 129.634 100 129.634L100 100L129.634 100Z" stroke="white" stroke-width="10" mask="url(#path-4-inside-3_87_211)"/>
<circle cx="100" cy="100" r="7" fill="white"/>
</g>
<defs>
<clipPath id="clip0_87_211">
<rect width="200" height="200" fill="white"/>
</clipPath>
</defs>
</svg>
